<mxfile host="app.diagrams.net" modified="2024-03-24T18:17:40.332Z" agent="Mozilla/5.0 (Macintosh; Intel Mac OS X 10_15_7) AppleWebKit/537.36 (KHTML, like Gecko) Chrome/123.0.0.0 Safari/537.36" version="24.1.0" etag="Fg37vg5VfbGou9BXkRYs" type="device">
  <diagram id="CzMRbtz9-gcksK8ssKRS" name="Page-1">
    <mxGraphModel dx="1468" dy="1765" grid="1" gridSize="10" guides="1" tooltips="1" connect="1" arrows="1" fold="1" page="1" pageScale="1" pageWidth="850" pageHeight="1100" math="0" shadow="0">
      <root>
        <mxCell id="0" />
        <mxCell id="1" parent="0" />
        <mxCell id="tyi4U2IjNq84kWnONVv1-5" value="" style="rounded=0;whiteSpace=wrap;html=1;strokeWidth=1;fillColor=none;" vertex="1" parent="1">
          <mxGeometry x="300" y="385" width="250" height="300" as="geometry" />
        </mxCell>
        <mxCell id="tyi4U2IjNq84kWnONVv1-1" value="Launch App" style="rounded=0;whiteSpace=wrap;html=1;fontSize=20;" vertex="1" parent="1">
          <mxGeometry x="305" y="150" width="205" height="110" as="geometry" />
        </mxCell>
        <mxCell id="tyi4U2IjNq84kWnONVv1-7" style="edgeStyle=orthogonalEdgeStyle;rounded=0;orthogonalLoop=1;jettySize=auto;html=1;entryX=0;entryY=0.5;entryDx=0;entryDy=0;" edge="1" parent="1" source="tyi4U2IjNq84kWnONVv1-2" target="tyi4U2IjNq84kWnONVv1-5">
          <mxGeometry relative="1" as="geometry" />
        </mxCell>
        <mxCell id="tyi4U2IjNq84kWnONVv1-2" value="Create Macro Repo" style="rounded=0;whiteSpace=wrap;html=1;fontSize=20;" vertex="1" parent="1">
          <mxGeometry x="10" y="480" width="205" height="110" as="geometry" />
        </mxCell>
        <mxCell id="tyi4U2IjNq84kWnONVv1-3" value="Generate App(s)" style="rounded=0;whiteSpace=wrap;html=1;fontSize=20;" vertex="1" parent="1">
          <mxGeometry x="323" y="550" width="205" height="110" as="geometry" />
        </mxCell>
        <mxCell id="tyi4U2IjNq84kWnONVv1-9" style="edgeStyle=orthogonalEdgeStyle;rounded=0;orthogonalLoop=1;jettySize=auto;html=1;entryX=0;entryY=0.5;entryDx=0;entryDy=0;" edge="1" parent="1" source="tyi4U2IjNq84kWnONVv1-4" target="tyi4U2IjNq84kWnONVv1-8">
          <mxGeometry relative="1" as="geometry" />
        </mxCell>
        <mxCell id="tyi4U2IjNq84kWnONVv1-4" value="Generate Package(s)" style="rounded=0;whiteSpace=wrap;html=1;fontSize=20;" vertex="1" parent="1">
          <mxGeometry x="323" y="410" width="205" height="110" as="geometry" />
        </mxCell>
        <mxCell id="tyi4U2IjNq84kWnONVv1-8" value="Generate Code" style="rounded=0;whiteSpace=wrap;html=1;fontSize=20;" vertex="1" parent="1">
          <mxGeometry x="600" y="320" width="205" height="110" as="geometry" />
        </mxCell>
      </root>
    </mxGraphModel>
  </diagram>
</mxfile>
